<svg xmlns="http://www.w3.org/2000/svg" viewBox="0 0 1200 750" role="img" aria-labelledby="title desc">
  <title id="title">Example robot wiring image</title>
  <desc id="desc">A simple placeholder illustration for wiring inside a robot project.</desc>
  <rect width="1200" height="750" fill="#eef2f7"/>
  <rect x="90" y="90" width="1020" height="570" rx="18" fill="#ffffff" stroke="#ccd7e1" stroke-width="6"/>
  <rect x="215" y="215" width="270" height="200" rx="24" fill="#17201c"/>
  <rect x="265" y="265" width="170" height="88" rx="10" fill="#326fa8"/>
  <rect x="704" y="230" width="245" height="170" rx="24" fill="#2d7356"/>
  <circle cx="790" cy="315" r="34" fill="#dce9e1"/>
  <circle cx="862" cy="315" r="34" fill="#dce9e1"/>
  <path d="M485 270 C590 210, 620 210, 704 270" fill="none" stroke="#ba642c" stroke-width="18" stroke-linecap="round"/>
  <path d="M485 325 C585 385, 625 390, 704 342" fill="none" stroke="#ad4b45" stroke-width="18" stroke-linecap="round"/>
  <path d="M485 380 C575 470, 660 460, 742 400" fill="none" stroke="#7455a3" stroke-width="18" stroke-linecap="round"/>
  <circle cx="312" cy="500" r="54" fill="#17201c"/>
  <circle cx="888" cy="500" r="54" fill="#17201c"/>
  <text x="600" y="135" text-anchor="middle" fill="#17201c" font-family="Arial, sans-serif" font-size="52" font-weight="700">Second image in gallery</text>
  <text x="600" y="640" text-anchor="middle" fill="#5f6b64" font-family="Arial, sans-serif" font-size="28">Use the arrows to scroll through project images</text>
</svg>
